# xmcd
#
# Track frame offsets:
# 150
# 10818
# 22373
# 35302
# 53361
# 63094
# 68172
# 85594
# 98787
# 108885
# 121817
# 129020
# 142340
# 154266
# 173232
# 186876
#
# Disc length: 2661 seconds
#
#
# Revision: 5
# Processed by: cddbd v1.5.1PL0 Copyright (c) Steve Scherf et al.
# Submitted via: FreeRIP 2.942 
#
DISCID=c90a6310
DTITLE=Jack Johnson - on and on
DYEAR=2003
DGENRE=Blues
TTITLE0=times like these
TTITLE1=the horizon has been defeated
TTITLE2=traffic in the sky
TTITLE3=taylor
TTITLE4=gone
TTITLE5=cupid
TTITLE6=wasting time
TTITLE7=holes to heaven
TTITLE8=dreams be dreams
TTITLE9=tomorrow morning
TTITLE10=fall line
TTITLE11=cookie jar
TTITLE12=rodeo clowns
TTITLE13=cocoon
TTITLE14=mediocre bad guys
TTITLE15=symbol in my driveway
EXTD=YEAR: 2003
EXTT0=
EXTT1=
EXTT2=
EXTT3=
EXTT4=
EXTT5=
EXTT6=
EXTT7=
EXTT8=
EXTT9=
EXTT10=
EXTT11=
EXTT12=
EXTT13=
EXTT14=
EXTT15=
PLAYORDER=
